# xmcd CD database file
#
# Track frame offsets:
#	150
#	23184
#	43725
#	60491
#	71343
#	94401
#	112572
#	129864
#	149917
#	165719
#	184616
#	203071
#	222628
#
# Disc length: 3187 seconds
#
# Revision: 0
# Processed by: cddbd v1.5.1PL0 Copyright (c) Steve Scherf et al.
# Submitted via: CDex 1.51
#
DISCID=bb0c710d
DTITLE=Bandari - Music for Relaxation
DYEAR=1998
DGENRE=New Age
TTITLE0=Trilogy
TTITLE1=Northern lights
TTITLE2=El Condor Pasa
TTITLE3=a New Star
TTITLE4=Machu Pichu
TTITLE5=Silver Bird
TTITLE6=The Daylight
TTITLE7=After The Rain
TTITLE8=Sideral  Hour
TTITLE9=Angeles
TTITLE10=Litle Mermaid
TTITLE11=Starry Sky
TTITLE12=Magic Winds
EXTD=YEAR: 1998
EXTT0=
EXTT1=
EXTT2=
EXTT3=
EXTT4=
EXTT5=
EXTT6=
EXTT7=
EXTT8=
EXTT9=
EXTT10=
EXTT11=
EXTT12=
PLAYORDER=
